<svg xmlns="http://www.w3.org/2000/svg" viewBox="0 0 100 50"><title>down_double_arrow</title><g id="Layer_2" data-name="Layer 2"><g id="Layer_1-2" data-name="Layer 1"><path d="M50,50a4.93,4.93,0,0,1-3.34-1.26L1.38,7.36a4.05,4.05,0,0,1,0-6.1,5,5,0,0,1,6.67,0L53.34,42.64a4.05,4.05,0,0,1,0,6.1A4.93,4.93,0,0,1,50,50Z" style="fill:#f2f2f2"/><path d="M50,50a4.93,4.93,0,0,1-3.34-1.26,4.05,4.05,0,0,1,0-6.1L91.95,1.26a5,5,0,0,1,6.67,0,4.05,4.05,0,0,1,0,6.1L53.34,48.74A4.93,4.93,0,0,1,50,50Z" style="fill:#f2f2f2"/><path d="M50,28a2.76,2.76,0,0,1-1.87-.71L22.77,4.12a2.27,2.27,0,0,1,0-3.41,2.82,2.82,0,0,1,3.74,0L51.87,23.88a2.27,2.27,0,0,1,0,3.41A2.76,2.76,0,0,1,50,28Z" style="fill:#f2f2f2"/><path d="M50,28a2.76,2.76,0,0,1-1.87-.71,2.27,2.27,0,0,1,0-3.41L73.49.71a2.82,2.82,0,0,1,3.74,0,2.27,2.27,0,0,1,0,3.41L51.87,27.29A2.76,2.76,0,0,1,50,28Z" style="fill:#f2f2f2"/></g></g></svg>