<svg xmlns="http://www.w3.org/2000/svg" viewBox="0 0 100 50"><title>down_arrow</title><g id="Layer_2" data-name="Layer 2"><g id="Layer_1-2" data-name="Layer 1"><path d="M50,50a4.93,4.93,0,0,1-3.34-1.26L1.38,7.36a4.05,4.05,0,0,1,0-6.1,5,5,0,0,1,6.67,0L53.34,42.64a4.05,4.05,0,0,1,0,6.1A4.93,4.93,0,0,1,50,50Z" style="fill:#f2f2f2"/><path d="M50,50a4.93,4.93,0,0,1-3.34-1.26,4.05,4.05,0,0,1,0-6.1L91.95,1.26a5,5,0,0,1,6.67,0,4.05,4.05,0,0,1,0,6.1L53.34,48.74A4.93,4.93,0,0,1,50,50Z" style="fill:#f2f2f2"/></g></g></svg>