<svg xmlns="http://www.w3.org/2000/svg" viewBox="0 0 519 221"><defs><style>.cls-1{fill:#007bff;}.cls-2{fill:#fff;}</style></defs><title>gal_dsgh_logo_organic</title><g id="Layer_2" data-name="Layer 2"><g id="Layer_1-2" data-name="Layer 1"><path class="cls-1" d="M0,0H394A125,125,0,0,1,519,125v96a0,0,0,0,1,0,0H125A125,125,0,0,1,0,96V0A0,0,0,0,1,0,0Z"/><path class="cls-2" d="M102.71,24.65l-6.79,6.43a51.84,51.84,0,0,0-16-10.92,43.17,43.17,0,0,0-17-3.72A40.52,40.52,0,0,0,43.28,21.5,36.72,36.72,0,0,0,28.85,35.22a35.41,35.41,0,0,0-5.12,18.3A36.14,36.14,0,0,0,29,72.3a37.62,37.62,0,0,0,14.64,14,42.12,42.12,0,0,0,20.48,5.09q13.51,0,22.86-7.62A30.07,30.07,0,0,0,98.07,64H70.16V55.55h37.74q-.12,20.3-12.05,32.23T63.91,99.71q-24.29,0-38.45-16.55A44,44,0,0,1,14.56,53.7a45.16,45.16,0,0,1,6.25-23.16A44.45,44.45,0,0,1,38,13.79a50,50,0,0,1,24.64-6,54.79,54.79,0,0,1,21,4A62.53,62.53,0,0,1,102.71,24.65Z"/><path class="cls-2" d="M147.16,10,188,97.51h-9.45L164.77,68.7H127L113.41,97.51h-9.76L145,10Zm-1.1,18.6L131,60.25H161Z"/><path class="cls-2" d="M192.89,10h8.75V89.06h33.69v8.45H192.89Z"/><path class="cls-2" d="M140.86,102.29H165q23.31,0,34.65,5.78t18.67,18.79q7.34,13,7.34,30.39a61.16,61.16,0,0,1-4.1,22.72,47.14,47.14,0,0,1-11.33,17.19,40,40,0,0,1-15.65,9.45q-8.43,2.62-29.2,2.62H140.86Zm20.21,19.63v67.46h9.45q14,0,20.25-3.2t10.29-10.77q4-7.57,4-18.63,0-17-9.52-26.42Q187,121.92,168,121.92Z"/><path class="cls-2" d="M293.71,116.83l-15.08,13.3q-7.94-11-16.17-11a9.83,9.83,0,0,0-6.55,2.14,6.25,6.25,0,0,0-2.55,4.83,8.27,8.27,0,0,0,1.82,5.09q2.48,3.2,14.93,13.74,11.65,9.74,14.13,12.29a42.64,42.64,0,0,1,8.77,12,29.86,29.86,0,0,1,2.58,12.47q0,13.16-9.1,21.74t-23.72,8.58a35.3,35.3,0,0,1-19.9-5.6q-8.48-5.6-14.52-17.59l17.11-10.32q7.72,14.18,17.76,14.18a13.08,13.08,0,0,0,8.81-3.05,9.08,9.08,0,0,0,3.57-7.05,12.17,12.17,0,0,0-2.69-7.27q-2.7-3.63-11.87-11.12-17.48-14.25-22.58-22t-5.1-15.45a25.26,25.26,0,0,1,8.48-19.08q8.48-8,20.92-8A33,33,0,0,1,278,103.31Q285.27,107,293.71,116.83Z"/><path class="cls-2" d="M406.29,119.73,392,133.91q-13.61-14.39-31.72-14.39-15.79,0-26.45,10.47a34.33,34.33,0,0,0-10.66,25.44,35.22,35.22,0,0,0,11.06,26.24q11.06,10.76,27.29,10.76,10.55,0,17.79-4.43T391,174.11H360V155h53.79l.15,4.51a52.36,52.36,0,0,1-7.27,26.61,50.81,50.81,0,0,1-18.83,19.19q-11.56,6.62-27.12,6.62-16.65,0-29.7-7.23a52.9,52.9,0,0,1-20.65-20.61,57.47,57.47,0,0,1-7.6-28.86,53.64,53.64,0,0,1,14-36.93Q333.45,99.6,360.13,99.6a66,66,0,0,1,26.1,5.16Q396.48,109.12,406.29,119.73Z"/><path class="cls-2" d="M425.09,102.29h20.65v40.35h35.69V102.29H502V209.22H481.43V162.33H445.73v46.89H425.09Z"/></g></g></svg>