<?xml version="1.0" encoding="UTF-8" standalone="no"?>
<!DOCTYPE svg PUBLIC "-//W3C//DTD SVG 1.1//EN" "http://www.w3.org/Graphics/SVG/1.1/DTD/svg11.dtd">
<svg width="100%" height="100%" viewBox="0 0 100 100" version="1.1" xmlns="http://www.w3.org/2000/svg" xmlns:xlink="http://www.w3.org/1999/xlink" xml:space="preserve" style="fill-rule:evenodd;clip-rule:evenodd;stroke-linejoin:round;stroke-miterlimit:1.41421;">
    <path d="M50.323,0.001L50.646,0.004L50.968,0.009L51.29,0.016L51.611,0.026L51.932,0.037L52.252,0.05L52.571,0.065L52.89,0.082L53.209,0.102L53.527,0.123L53.845,0.146L54.162,0.171L54.478,0.198L54.794,0.227L55.109,0.258L55.424,0.291L55.738,0.326L56.052,0.363L56.364,0.402L56.677,0.443L56.989,0.485L57.3,0.53L57.61,0.577L57.92,0.625L58.229,0.675L58.538,0.727L58.846,0.782L59.153,0.837L59.46,0.895L59.766,0.955L60.071,1.017L60.376,1.08L60.68,1.145L60.983,1.212L61.286,1.281L61.588,1.352L61.889,1.425L62.19,1.499L62.49,1.575L62.789,1.653L63.087,1.733L63.385,1.815L63.682,1.898L63.978,1.983L64.273,2.07L64.568,2.159L64.862,2.249L65.155,2.342L65.447,2.436L65.739,2.531L66.029,2.629L66.319,2.728L66.608,2.829L66.897,2.932L67.184,3.036L67.471,3.142L67.757,3.25L68.042,3.359L68.326,3.47L68.609,3.583L68.892,3.698L69.174,3.814L69.454,3.932L69.734,4.051L70.013,4.172L70.292,4.295L70.569,4.42L70.845,4.546L71.121,4.673L71.395,4.803L71.669,4.934L71.942,5.066L72.214,5.2L72.484,5.336L72.754,5.473L73.023,5.612L73.292,5.753L73.559,5.895L73.825,6.038L74.09,6.184L74.354,6.33L74.617,6.479L74.88,6.628L75.141,6.78L75.401,6.933L75.66,7.087L75.919,7.243L76.176,7.4L76.432,7.559L76.687,7.72L76.941,7.882L77.194,8.045L77.446,8.21L77.697,8.376L77.947,8.544L78.196,8.713L78.444,8.884L78.691,9.056L78.936,9.23L79.181,9.405L79.424,9.581L79.667,9.759L79.908,9.939L80.148,10.119L80.387,10.302L80.625,10.485L80.862,10.67L81.097,10.856L81.332,11.044L81.565,11.233L81.797,11.424L82.028,11.615L82.258,11.808L82.486,12.003L82.714,12.199L82.94,12.396L83.165,12.595L83.389,12.794L83.612,12.996L83.833,13.198L84.053,13.402L84.272,13.607L84.49,13.813L84.706,14.021L84.922,14.23L85.136,14.44L85.348,14.652L85.56,14.864L85.77,15.078L85.979,15.294L86.187,15.51L86.393,15.728L86.598,15.947L86.802,16.167L87.004,16.388L87.206,16.611L87.405,16.835L87.604,17.06L87.801,17.286L87.997,17.514L88.192,17.742L88.385,17.972L88.576,18.203L88.767,18.435L88.956,18.668L89.144,18.903L89.33,19.138L89.515,19.375L89.698,19.613L89.881,19.852L90.061,20.092L90.241,20.333L90.419,20.576L90.595,20.819L90.77,21.064L90.944,21.309L91.116,21.556L91.287,21.804L91.456,22.053L91.624,22.303L91.79,22.554L91.955,22.806L92.118,23.059L92.28,23.313L92.441,23.568L92.6,23.824L92.757,24.081L92.913,24.34L93.067,24.599L93.22,24.859L93.372,25.12L93.521,25.383L93.67,25.646L93.816,25.91L93.962,26.175L94.105,26.441L94.247,26.708L94.388,26.977L94.527,27.246L94.664,27.516L94.8,27.786L94.934,28.058L95.066,28.331L95.197,28.605L95.327,28.879L95.454,29.155L95.58,29.431L95.705,29.708L95.828,29.987L95.949,30.266L96.068,30.546L96.186,30.826L96.302,31.108L96.417,31.391L96.53,31.674L96.641,31.958L96.75,32.243L96.858,32.529L96.964,32.816L97.068,33.103L97.171,33.392L97.272,33.681L97.371,33.971L97.469,34.261L97.564,34.553L97.658,34.845L97.751,35.138L97.841,35.432L97.93,35.727L98.017,36.022L98.102,36.318L98.185,36.615L98.267,36.913L98.347,37.211L98.425,37.51L98.501,37.81L98.575,38.111L98.648,38.412L98.719,38.714L98.788,39.017L98.855,39.32L98.92,39.624L98.983,39.929L99.045,40.234L99.105,40.54L99.163,40.847L99.218,41.154L99.273,41.462L99.325,41.771L99.375,42.08L99.423,42.39L99.47,42.7L99.515,43.011L99.557,43.323L99.598,43.636L99.637,43.948L99.674,44.262L99.709,44.576L99.742,44.891L99.773,45.206L99.802,45.522L99.829,45.838L99.854,46.155L99.877,46.473L99.898,46.791L99.918,47.11L99.935,47.429L99.95,47.748L99.963,48.068L99.974,48.389L99.984,48.71L99.991,49.032L99.996,49.354L99.999,49.677L100,50L99.999,50.323L99.996,50.646L99.991,50.968L99.984,51.29L99.974,51.611L99.963,51.932L99.95,52.252L99.935,52.571L99.918,52.89L99.898,53.209L99.877,53.527L99.854,53.845L99.829,54.162L99.802,54.478L99.773,54.794L99.742,55.109L99.709,55.424L99.674,55.738L99.637,56.052L99.598,56.364L99.557,56.677L99.515,56.989L99.47,57.3L99.423,57.61L99.375,57.92L99.325,58.229L99.273,58.538L99.218,58.846L99.163,59.153L99.105,59.46L99.045,59.766L98.983,60.071L98.92,60.376L98.855,60.68L98.788,60.983L98.719,61.286L98.648,61.588L98.575,61.889L98.501,62.19L98.425,62.49L98.347,62.789L98.267,63.087L98.185,63.385L98.102,63.682L98.017,63.978L97.93,64.273L97.841,64.568L97.751,64.862L97.658,65.155L97.564,65.447L97.469,65.739L97.371,66.029L97.272,66.319L97.171,66.608L97.068,66.897L96.964,67.184L96.858,67.471L96.75,67.757L96.641,68.042L96.53,68.326L96.417,68.609L96.302,68.892L96.186,69.174L96.068,69.454L95.949,69.734L95.828,70.013L95.705,70.292L95.58,70.569L95.454,70.845L95.327,71.121L95.197,71.395L95.066,71.669L94.934,71.942L94.8,72.214L94.664,72.484L94.527,72.754L94.388,73.023L94.247,73.292L94.105,73.559L93.962,73.825L93.816,74.09L93.67,74.354L93.521,74.617L93.372,74.88L93.22,75.141L93.067,75.401L92.913,75.66L92.757,75.919L92.6,76.176L92.441,76.432L92.28,76.687L92.118,76.941L91.955,77.194L91.79,77.446L91.624,77.697L91.456,77.947L91.287,78.196L91.116,78.444L90.944,78.691L90.77,78.936L90.595,79.181L90.419,79.424L90.241,79.667L90.061,79.908L89.881,80.148L89.698,80.387L89.515,80.625L89.33,80.862L89.144,81.097L88.956,81.332L88.767,81.565L88.576,81.797L88.385,82.028L88.192,82.258L87.997,82.486L87.801,82.714L87.604,82.94L87.405,83.165L87.206,83.389L87.004,83.612L86.802,83.833L86.598,84.053L86.393,84.272L86.187,84.49L85.979,84.706L85.77,84.922L85.56,85.136L85.348,85.348L85.136,85.56L84.922,85.77L84.706,85.979L84.49,86.187L84.272,86.393L84.053,86.598L83.833,86.802L83.612,87.004L83.389,87.206L83.165,87.405L82.94,87.604L82.714,87.801L82.486,87.997L82.258,88.192L82.028,88.385L81.797,88.576L81.565,88.767L81.332,88.956L81.097,89.144L80.862,89.33L80.625,89.515L80.387,89.698L80.148,89.881L79.908,90.061L79.667,90.241L79.424,90.419L79.181,90.595L78.936,90.77L78.691,90.944L78.444,91.116L78.196,91.287L77.947,91.456L77.697,91.624L77.446,91.79L77.194,91.955L76.941,92.118L76.687,92.28L76.432,92.441L76.176,92.6L75.919,92.757L75.66,92.913L75.401,93.067L75.141,93.22L74.88,93.372L74.617,93.521L74.354,93.67L74.09,93.816L73.825,93.962L73.559,94.105L73.292,94.247L73.023,94.388L72.754,94.527L72.484,94.664L72.214,94.8L71.942,94.934L71.669,95.066L71.395,95.197L71.121,95.327L70.845,95.454L70.569,95.58L70.292,95.705L70.013,95.828L69.734,95.949L69.454,96.068L69.174,96.186L68.892,96.302L68.609,96.417L68.326,96.53L68.042,96.641L67.757,96.75L67.471,96.858L67.184,96.964L66.897,97.068L66.608,97.171L66.319,97.272L66.029,97.371L65.739,97.469L65.447,97.564L65.155,97.658L64.862,97.751L64.568,97.841L64.273,97.93L63.978,98.017L63.682,98.102L63.385,98.185L63.087,98.267L62.789,98.347L62.49,98.425L62.19,98.501L61.889,98.575L61.588,98.648L61.286,98.719L60.983,98.788L60.68,98.855L60.376,98.92L60.071,98.983L59.766,99.045L59.46,99.105L59.153,99.163L58.846,99.218L58.538,99.273L58.229,99.325L57.92,99.375L57.61,99.423L57.3,99.47L56.989,99.515L56.677,99.557L56.364,99.598L56.052,99.637L55.738,99.674L55.424,99.709L55.109,99.742L54.794,99.773L54.478,99.802L54.162,99.829L53.845,99.854L53.527,99.877L53.209,99.898L52.89,99.918L52.571,99.935L52.252,99.95L51.932,99.963L51.611,99.974L51.29,99.984L50.968,99.991L50.646,99.996L50.323,99.999L50,100L49.677,99.999L49.354,99.996L49.032,99.991L48.71,99.984L48.389,99.974L48.068,99.963L47.748,99.95L47.429,99.935L47.11,99.918L46.791,99.898L46.473,99.877L46.155,99.854L45.838,99.829L45.522,99.802L45.206,99.773L44.891,99.742L44.576,99.709L44.262,99.674L43.948,99.637L43.636,99.598L43.323,99.557L43.011,99.515L42.7,99.47L42.39,99.423L42.08,99.375L41.771,99.325L41.462,99.273L41.154,99.218L40.847,99.163L40.54,99.105L40.234,99.045L39.929,98.983L39.624,98.92L39.32,98.855L39.017,98.788L38.714,98.719L38.412,98.648L38.111,98.575L37.81,98.501L37.51,98.425L37.211,98.347L36.913,98.267L36.615,98.185L36.318,98.102L36.022,98.017L35.727,97.93L35.432,97.841L35.138,97.751L34.845,97.658L34.553,97.564L34.261,97.469L33.971,97.371L33.681,97.272L33.392,97.171L33.103,97.068L32.816,96.964L32.529,96.858L32.243,96.75L31.958,96.641L31.674,96.53L31.391,96.417L31.108,96.302L30.826,96.186L30.546,96.068L30.266,95.949L29.987,95.828L29.708,95.705L29.431,95.58L29.155,95.454L28.879,95.327L28.605,95.197L28.331,95.066L28.058,94.934L27.786,94.8L27.516,94.664L27.246,94.527L26.977,94.388L26.708,94.247L26.441,94.105L26.175,93.962L25.91,93.816L25.646,93.67L25.383,93.521L25.12,93.372L24.859,93.22L24.599,93.067L24.34,92.913L24.081,92.757L23.824,92.6L23.568,92.441L23.313,92.28L23.059,92.118L22.806,91.955L22.554,91.79L22.303,91.624L22.053,91.456L21.804,91.287L21.556,91.116L21.309,90.944L21.064,90.77L20.819,90.595L20.576,90.419L20.333,90.241L20.092,90.061L19.852,89.881L19.613,89.698L19.375,89.515L19.138,89.33L18.903,89.144L18.668,88.956L18.435,88.767L18.203,88.576L17.972,88.385L17.742,88.192L17.514,87.997L17.286,87.801L17.06,87.604L16.835,87.405L16.611,87.206L16.388,87.004L16.167,86.802L15.947,86.598L15.728,86.393L15.51,86.187L15.294,85.979L15.078,85.77L14.864,85.56L14.652,85.348L14.44,85.136L14.23,84.922L14.021,84.706L13.813,84.49L13.607,84.272L13.402,84.053L13.198,83.833L12.996,83.612L12.794,83.389L12.595,83.165L12.396,82.94L12.199,82.714L12.003,82.486L11.808,82.258L11.615,82.028L11.424,81.797L11.233,81.565L11.044,81.332L10.856,81.097L10.67,80.862L10.485,80.625L10.302,80.387L10.119,80.148L9.939,79.908L9.759,79.667L9.581,79.424L9.405,79.181L9.23,78.936L9.056,78.691L8.884,78.444L8.713,78.196L8.544,77.947L8.376,77.697L8.21,77.446L8.045,77.194L7.882,76.941L7.72,76.687L7.559,76.432L7.4,76.176L7.243,75.919L7.087,75.66L6.933,75.401L6.78,75.141L6.628,74.88L6.479,74.617L6.33,74.354L6.184,74.09L6.038,73.825L5.895,73.559L5.753,73.292L5.612,73.023L5.473,72.754L5.336,72.484L5.2,72.214L5.066,71.942L4.934,71.669L4.803,71.395L4.673,71.121L4.546,70.845L4.42,70.569L4.295,70.292L4.172,70.013L4.051,69.734L3.932,69.454L3.814,69.174L3.698,68.892L3.583,68.609L3.47,68.326L3.359,68.042L3.25,67.757L3.142,67.471L3.036,67.184L2.932,66.897L2.829,66.608L2.728,66.319L2.629,66.029L2.531,65.739L2.436,65.447L2.342,65.155L2.249,64.862L2.159,64.568L2.07,64.273L1.983,63.978L1.898,63.682L1.815,63.385L1.733,63.087L1.653,62.789L1.575,62.49L1.499,62.19L1.425,61.889L1.352,61.588L1.281,61.286L1.212,60.983L1.145,60.68L1.08,60.376L1.017,60.071L0.955,59.766L0.895,59.46L0.837,59.153L0.782,58.846L0.727,58.538L0.675,58.229L0.625,57.92L0.577,57.61L0.53,57.3L0.485,56.989L0.443,56.677L0.402,56.364L0.363,56.052L0.326,55.738L0.291,55.424L0.258,55.109L0.227,54.794L0.198,54.478L0.171,54.162L0.146,53.845L0.123,53.527L0.102,53.209L0.082,52.89L0.065,52.571L0.05,52.252L0.037,51.932L0.026,51.611L0.016,51.29L0.009,50.968L0.004,50.646L0.001,50.323L0,50L0.001,49.677L0.004,49.354L0.009,49.032L0.016,48.71L0.026,48.389L0.037,48.068L0.05,47.748L0.065,47.429L0.082,47.11L0.102,46.791L0.123,46.473L0.146,46.155L0.171,45.838L0.198,45.522L0.227,45.206L0.258,44.891L0.291,44.576L0.326,44.262L0.363,43.948L0.402,43.636L0.443,43.323L0.485,43.011L0.53,42.7L0.577,42.39L0.625,42.08L0.675,41.771L0.727,41.462L0.782,41.154L0.837,40.847L0.895,40.54L0.955,40.234L1.017,39.929L1.08,39.624L1.145,39.32L1.212,39.017L1.281,38.714L1.352,38.412L1.425,38.111L1.499,37.81L1.575,37.51L1.653,37.211L1.733,36.913L1.815,36.615L1.898,36.318L1.983,36.022L2.07,35.727L2.159,35.432L2.249,35.138L2.342,34.845L2.436,34.553L2.531,34.261L2.629,33.971L2.728,33.681L2.829,33.392L2.932,33.103L3.036,32.816L3.142,32.529L3.25,32.243L3.359,31.958L3.47,31.674L3.583,31.391L3.698,31.108L3.814,30.826L3.932,30.546L4.051,30.266L4.172,29.987L4.295,29.708L4.42,29.431L4.546,29.155L4.673,28.879L4.803,28.605L4.934,28.331L5.066,28.058L5.2,27.786L5.336,27.516L5.473,27.246L5.612,26.977L5.753,26.708L5.895,26.441L6.038,26.175L6.184,25.91L6.33,25.646L6.479,25.383L6.628,25.12L6.78,24.859L6.933,24.599L7.087,24.34L7.243,24.081L7.4,23.824L7.559,23.568L7.72,23.313L7.882,23.059L8.045,22.806L8.21,22.554L8.376,22.303L8.544,22.053L8.713,21.804L8.884,21.556L9.056,21.309L9.23,21.064L9.405,20.819L9.581,20.576L9.759,20.333L9.939,20.092L10.119,19.852L10.302,19.613L10.485,19.375L10.67,19.138L10.856,18.903L11.044,18.668L11.233,18.435L11.424,18.203L11.615,17.972L11.808,17.742L12.003,17.514L12.199,17.286L12.396,17.06L12.595,16.835L12.794,16.611L12.996,16.388L13.198,16.167L13.402,15.947L13.607,15.728L13.813,15.51L14.021,15.294L14.23,15.078L14.44,14.864L14.652,14.652L14.864,14.44L15.078,14.23L15.294,14.021L15.51,13.813L15.728,13.607L15.947,13.402L16.167,13.198L16.388,12.996L16.611,12.794L16.835,12.595L17.06,12.396L17.286,12.199L17.514,12.003L17.742,11.808L17.972,11.615L18.203,11.424L18.435,11.233L18.668,11.044L18.903,10.856L19.138,10.67L19.375,10.485L19.613,10.302L19.852,10.119L20.092,9.939L20.333,9.759L20.576,9.581L20.819,9.405L21.064,9.23L21.309,9.056L21.556,8.884L21.804,8.713L22.053,8.544L22.303,8.376L22.554,8.21L22.806,8.045L23.059,7.882L23.313,7.72L23.568,7.559L23.824,7.4L24.081,7.243L24.34,7.087L24.599,6.933L24.859,6.78L25.12,6.628L25.383,6.479L25.646,6.33L25.91,6.184L26.175,6.038L26.441,5.895L26.708,5.753L26.977,5.612L27.246,5.473L27.516,5.336L27.786,5.2L28.058,5.066L28.331,4.934L28.605,4.803L28.879,4.673L29.155,4.546L29.431,4.42L29.708,4.295L29.987,4.172L30.266,4.051L30.546,3.932L30.826,3.814L31.108,3.698L31.391,3.583L31.674,3.47L31.958,3.359L32.243,3.25L32.529,3.142L32.816,3.036L33.103,2.932L33.392,2.829L33.681,2.728L33.971,2.629L34.261,2.531L34.553,2.436L34.845,2.342L35.138,2.249L35.432,2.159L35.727,2.07L36.022,1.983L36.318,1.898L36.615,1.815L36.913,1.733L37.211,1.653L37.51,1.575L37.81,1.499L38.111,1.425L38.412,1.352L38.714,1.281L39.017,1.212L39.32,1.145L39.624,1.08L39.929,1.017L40.234,0.955L40.54,0.895L40.847,0.837L41.154,0.782L41.462,0.727L41.771,0.675L42.08,0.625L42.39,0.577L42.7,0.53L43.011,0.485L43.323,0.443L43.636,0.402L43.948,0.363L44.262,0.326L44.576,0.291L44.891,0.258L45.206,0.227L45.522,0.198L45.838,0.171L46.155,0.146L46.473,0.123L46.791,0.102L47.11,0.082L47.429,0.065L47.748,0.05L48.068,0.037L48.389,0.026L48.71,0.016L49.032,0.009L49.354,0.004L49.677,0.001L50,0L50.323,0.001ZM49.696,3.001L49.392,3.004L49.089,3.009L48.786,3.015L48.484,3.024L48.183,3.035L47.881,3.047L47.581,3.061L47.281,3.077L46.981,3.096L46.682,3.115L46.383,3.137L46.085,3.161L45.788,3.186L45.491,3.214L45.194,3.243L44.898,3.274L44.603,3.307L44.308,3.342L44.014,3.378L43.721,3.416L43.428,3.456L43.135,3.498L42.843,3.542L42.552,3.588L42.262,3.635L41.972,3.684L41.682,3.735L41.393,3.787L41.105,3.842L40.818,3.898L40.531,3.956L40.244,4.015L39.959,4.076L39.674,4.14L39.389,4.204L39.106,4.271L38.823,4.339L38.54,4.409L38.259,4.48L37.978,4.554L37.697,4.629L37.418,4.705L37.139,4.784L36.861,4.864L36.583,4.946L36.306,5.029L36.03,5.114L35.755,5.201L35.48,5.289L35.206,5.379L34.933,5.47L34.661,5.564L34.389,5.658L34.118,5.755L33.848,5.853L33.579,5.953L33.31,6.054L33.042,6.157L32.775,6.261L32.509,6.367L32.243,6.475L31.979,6.584L31.715,6.695L31.452,6.807L31.19,6.921L30.928,7.036L30.668,7.153L30.408,7.271L30.149,7.391L29.891,7.513L29.634,7.636L29.378,7.761L29.122,7.887L28.868,8.014L28.614,8.143L28.361,8.274L28.109,8.406L27.858,8.539L27.608,8.674L27.359,8.811L27.11,8.949L26.863,9.088L26.616,9.229L26.371,9.371L26.126,9.515L25.882,9.66L25.64,9.807L25.398,9.954L25.157,10.104L24.917,10.255L24.678,10.407L24.44,10.561L24.203,10.716L23.967,10.872L23.732,11.03L23.499,11.189L23.266,11.349L23.034,11.511L22.803,11.674L22.573,11.839L22.344,12.005L22.116,12.172L21.889,12.341L21.663,12.511L21.439,12.682L21.215,12.855L20.992,13.029L20.771,13.204L20.55,13.38L20.331,13.558L20.113,13.737L19.896,13.918L19.679,14.099L19.464,14.282L19.251,14.466L19.038,14.652L18.826,14.838L18.616,15.026L18.406,15.216L18.198,15.406L17.991,15.598L17.785,15.79L17.58,15.985L17.377,16.18L17.174,16.376L16.973,16.574L16.773,16.773L16.574,16.973L16.376,17.174L16.18,17.377L15.985,17.58L15.79,17.785L15.598,17.991L15.406,18.198L15.216,18.406L15.026,18.616L14.838,18.826L14.652,19.038L14.466,19.251L14.282,19.464L14.099,19.679L13.918,19.896L13.737,20.113L13.558,20.331L13.38,20.55L13.204,20.771L13.029,20.992L12.855,21.215L12.682,21.439L12.511,21.663L12.341,21.889L12.172,22.116L12.005,22.344L11.839,22.573L11.674,22.803L11.511,23.034L11.349,23.266L11.189,23.499L11.03,23.732L10.872,23.967L10.716,24.203L10.561,24.44L10.407,24.678L10.255,24.917L10.104,25.157L9.954,25.398L9.807,25.64L9.66,25.882L9.515,26.126L9.371,26.371L9.229,26.616L9.088,26.863L8.949,27.11L8.811,27.359L8.674,27.608L8.539,27.858L8.406,28.109L8.274,28.361L8.143,28.614L8.014,28.868L7.887,29.122L7.761,29.378L7.636,29.634L7.513,29.891L7.391,30.149L7.271,30.408L7.153,30.668L7.036,30.928L6.921,31.19L6.807,31.452L6.695,31.715L6.584,31.979L6.475,32.243L6.367,32.509L6.261,32.775L6.157,33.042L6.054,33.31L5.953,33.579L5.853,33.848L5.755,34.118L5.658,34.389L5.564,34.661L5.47,34.933L5.379,35.206L5.289,35.48L5.201,35.755L5.114,36.03L5.029,36.306L4.946,36.583L4.864,36.861L4.784,37.139L4.705,37.418L4.629,37.697L4.554,37.978L4.48,38.259L4.409,38.54L4.339,38.823L4.271,39.106L4.204,39.389L4.14,39.674L4.076,39.959L4.015,40.244L3.956,40.531L3.898,40.818L3.842,41.105L3.787,41.393L3.735,41.682L3.684,41.972L3.635,42.262L3.588,42.552L3.542,42.843L3.498,43.135L3.456,43.428L3.416,43.721L3.378,44.014L3.342,44.308L3.307,44.603L3.274,44.898L3.243,45.194L3.214,45.491L3.186,45.788L3.161,46.085L3.137,46.383L3.115,46.682L3.096,46.981L3.077,47.281L3.061,47.581L3.047,47.881L3.035,48.183L3.024,48.484L3.015,48.786L3.009,49.089L3.004,49.392L3.001,49.696L3,50L3.001,50.304L3.004,50.608L3.009,50.911L3.015,51.214L3.024,51.516L3.035,51.817L3.047,52.119L3.061,52.419L3.077,52.719L3.096,53.019L3.115,53.318L3.137,53.617L3.161,53.915L3.186,54.212L3.214,54.509L3.243,54.806L3.274,55.102L3.307,55.397L3.342,55.692L3.378,55.986L3.416,56.279L3.456,56.572L3.498,56.865L3.542,57.157L3.588,57.448L3.635,57.738L3.684,58.028L3.735,58.318L3.787,58.607L3.842,58.895L3.898,59.182L3.956,59.469L4.015,59.756L4.076,60.041L4.14,60.326L4.204,60.611L4.271,60.894L4.339,61.177L4.409,61.46L4.48,61.741L4.554,62.022L4.629,62.303L4.705,62.582L4.784,62.861L4.864,63.139L4.946,63.417L5.029,63.694L5.114,63.97L5.201,64.245L5.289,64.52L5.379,64.794L5.47,65.067L5.564,65.339L5.658,65.611L5.755,65.882L5.853,66.152L5.953,66.421L6.054,66.69L6.157,66.958L6.261,67.225L6.367,67.491L6.475,67.757L6.584,68.021L6.695,68.285L6.807,68.548L6.921,68.81L7.036,69.072L7.153,69.332L7.271,69.592L7.391,69.851L7.513,70.109L7.636,70.366L7.761,70.622L7.887,70.878L8.014,71.132L8.143,71.386L8.274,71.639L8.406,71.891L8.539,72.142L8.674,72.392L8.811,72.641L8.949,72.89L9.088,73.137L9.229,73.384L9.371,73.629L9.515,73.874L9.66,74.118L9.806,74.36L9.954,74.602L10.104,74.843L10.255,75.083L10.407,75.322L10.561,75.56L10.716,75.797L10.872,76.033L11.03,76.268L11.189,76.501L11.349,76.734L11.511,76.966L11.674,77.197L11.839,77.427L12.005,77.656L12.172,77.884L12.341,78.111L12.511,78.337L12.682,78.561L12.855,78.785L13.029,79.008L13.204,79.229L13.38,79.45L13.558,79.669L13.737,79.887L13.918,80.104L14.099,80.321L14.282,80.536L14.466,80.749L14.652,80.962L14.838,81.174L15.026,81.384L15.216,81.594L15.406,81.802L15.598,82.009L15.79,82.215L15.985,82.42L16.18,82.623L16.376,82.826L16.574,83.027L16.773,83.227L16.973,83.426L17.174,83.624L17.377,83.82L17.58,84.015L17.785,84.21L17.991,84.402L18.198,84.594L18.406,84.784L18.616,84.974L18.826,85.162L19.038,85.348L19.251,85.534L19.465,85.718L19.679,85.901L19.896,86.082L20.113,86.263L20.331,86.442L20.55,86.62L20.771,86.796L20.992,86.971L21.215,87.145L21.439,87.318L21.663,87.489L21.889,87.659L22.116,87.828L22.344,87.995L22.573,88.161L22.803,88.326L23.034,88.489L23.266,88.651L23.498,88.811L23.733,88.97L23.967,89.128L24.203,89.284L24.44,89.439L24.678,89.593L24.917,89.745L25.157,89.896L25.398,90.046L25.64,90.193L25.882,90.34L26.126,90.485L26.371,90.629L26.616,90.771L26.863,90.912L27.11,91.051L27.359,91.189L27.608,91.326L27.858,91.461L28.109,91.594L28.361,91.726L28.614,91.857L28.868,91.986L29.122,92.113L29.378,92.239L29.634,92.364L29.891,92.487L30.149,92.609L30.408,92.729L30.668,92.847L30.928,92.964L31.19,93.079L31.452,93.193L31.715,93.305L31.979,93.416L32.243,93.525L32.509,93.633L32.775,93.739L33.042,93.843L33.31,93.946L33.579,94.047L33.848,94.147L34.118,94.245L34.389,94.342L34.661,94.436L34.933,94.53L35.206,94.621L35.48,94.711L35.755,94.799L36.03,94.886L36.306,94.971L36.583,95.054L36.861,95.136L37.139,95.216L37.418,95.295L37.697,95.371L37.978,95.446L38.259,95.52L38.54,95.591L38.823,95.661L39.106,95.729L39.389,95.796L39.674,95.86L39.959,95.924L40.244,95.985L40.531,96.044L40.818,96.102L41.105,96.158L41.393,96.213L41.682,96.265L41.971,96.316L42.262,96.365L42.552,96.412L42.843,96.458L43.135,96.502L43.428,96.544L43.721,96.584L44.014,96.622L44.308,96.658L44.603,96.693L44.898,96.726L45.194,96.757L45.491,96.786L45.788,96.814L46.085,96.839L46.383,96.863L46.682,96.885L46.981,96.904L47.281,96.923L47.581,96.939L47.881,96.953L48.183,96.965L48.484,96.976L48.786,96.985L49.089,96.991L49.392,96.996L49.696,96.999L50,97L50.304,96.999L50.608,96.996L50.911,96.991L51.214,96.985L51.516,96.976L51.817,96.965L52.119,96.953L52.419,96.939L52.719,96.923L53.019,96.904L53.318,96.885L53.617,96.863L53.915,96.839L54.212,96.814L54.509,96.786L54.806,96.757L55.102,96.726L55.397,96.693L55.692,96.658L55.986,96.622L56.279,96.584L56.572,96.544L56.865,96.502L57.157,96.458L57.448,96.412L57.738,96.365L58.029,96.316L58.318,96.265L58.607,96.213L58.895,96.158L59.182,96.102L59.469,96.044L59.756,95.985L60.041,95.924L60.326,95.86L60.611,95.796L60.894,95.729L61.177,95.661L61.46,95.591L61.741,95.52L62.022,95.446L62.303,95.371L62.582,95.295L62.861,95.216L63.139,95.136L63.417,95.054L63.694,94.971L63.97,94.886L64.245,94.799L64.52,94.711L64.794,94.621L65.067,94.53L65.339,94.436L65.611,94.342L65.882,94.245L66.152,94.147L66.421,94.047L66.69,93.946L66.958,93.843L67.225,93.739L67.491,93.633L67.757,93.525L68.021,93.416L68.285,93.305L68.548,93.193L68.81,93.079L69.072,92.964L69.332,92.847L69.592,92.729L69.851,92.609L70.109,92.487L70.366,92.364L70.622,92.239L70.878,92.113L71.132,91.986L71.386,91.857L71.639,91.726L71.891,91.594L72.142,91.461L72.392,91.326L72.641,91.189L72.89,91.051L73.137,90.912L73.384,90.771L73.629,90.629L73.874,90.485L74.118,90.34L74.36,90.193L74.602,90.046L74.843,89.896L75.083,89.745L75.322,89.593L75.56,89.439L75.797,89.284L76.033,89.128L76.267,88.97L76.502,88.811L76.734,88.651L76.966,88.489L77.197,88.326L77.427,88.161L77.656,87.995L77.884,87.828L78.111,87.659L78.337,87.489L78.561,87.318L78.785,87.145L79.008,86.971L79.229,86.796L79.45,86.62L79.669,86.442L79.887,86.263L80.104,86.082L80.321,85.901L80.536,85.718L80.749,85.534L80.962,85.348L81.174,85.162L81.384,84.974L81.594,84.784L81.802,84.594L82.009,84.402L82.215,84.21L82.42,84.015L82.623,83.82L82.826,83.624L83.027,83.426L83.227,83.227L83.426,83.027L83.624,82.826L83.82,82.623L84.015,82.42L84.21,82.215L84.402,82.009L84.594,81.802L84.784,81.594L84.974,81.384L85.162,81.174L85.348,80.962L85.534,80.749L85.718,80.536L85.901,80.321L86.082,80.104L86.263,79.887L86.442,79.669L86.62,79.45L86.796,79.229L86.971,79.008L87.145,78.785L87.318,78.561L87.489,78.337L87.659,78.111L87.828,77.884L87.995,77.656L88.161,77.427L88.326,77.197L88.489,76.966L88.651,76.734L88.811,76.502L88.97,76.267L89.128,76.033L89.284,75.797L89.439,75.56L89.593,75.322L89.745,75.083L89.896,74.843L90.046,74.602L90.193,74.36L90.34,74.118L90.485,73.874L90.629,73.629L90.771,73.384L90.912,73.137L91.051,72.89L91.189,72.641L91.326,72.392L91.461,72.142L91.594,71.891L91.726,71.639L91.857,71.386L91.986,71.132L92.113,70.878L92.239,70.622L92.364,70.366L92.487,70.109L92.609,69.851L92.729,69.592L92.847,69.332L92.964,69.072L93.079,68.81L93.193,68.548L93.305,68.285L93.416,68.021L93.525,67.757L93.633,67.491L93.739,67.225L93.843,66.958L93.946,66.69L94.047,66.421L94.147,66.152L94.245,65.882L94.342,65.611L94.436,65.339L94.53,65.067L94.621,64.794L94.711,64.52L94.799,64.245L94.886,63.97L94.971,63.694L95.054,63.417L95.136,63.139L95.216,62.861L95.295,62.582L95.371,62.303L95.446,62.022L95.52,61.741L95.591,61.46L95.661,61.177L95.729,60.894L95.796,60.611L95.86,60.326L95.924,60.041L95.985,59.756L96.044,59.469L96.102,59.182L96.158,58.895L96.213,58.607L96.265,58.318L96.316,58.029L96.365,57.738L96.412,57.448L96.458,57.157L96.502,56.865L96.544,56.572L96.584,56.279L96.622,55.986L96.658,55.692L96.693,55.397L96.726,55.102L96.757,54.806L96.786,54.509L96.814,54.212L96.839,53.915L96.863,53.617L96.885,53.318L96.904,53.019L96.923,52.719L96.939,52.419L96.953,52.119L96.965,51.817L96.976,51.516L96.985,51.214L96.991,50.911L96.996,50.608L96.999,50.304L97,50L96.999,49.696L96.996,49.392L96.991,49.089L96.985,48.786L96.976,48.484L96.965,48.183L96.953,47.881L96.939,47.581L96.923,47.281L96.904,46.981L96.885,46.682L96.863,46.383L96.839,46.085L96.814,45.788L96.786,45.491L96.757,45.194L96.726,44.898L96.693,44.603L96.658,44.308L96.622,44.014L96.584,43.721L96.544,43.428L96.502,43.135L96.458,42.843L96.412,42.552L96.365,42.262L96.316,41.971L96.265,41.682L96.213,41.393L96.158,41.105L96.102,40.818L96.044,40.531L95.985,40.244L95.924,39.959L95.86,39.674L95.796,39.389L95.729,39.106L95.661,38.823L95.591,38.54L95.52,38.259L95.446,37.978L95.371,37.697L95.295,37.418L95.216,37.139L95.136,36.861L95.054,36.583L94.971,36.306L94.886,36.03L94.799,35.755L94.711,35.48L94.621,35.206L94.53,34.933L94.436,34.661L94.342,34.389L94.245,34.118L94.147,33.848L94.047,33.579L93.946,33.31L93.843,33.042L93.739,32.775L93.633,32.509L93.525,32.243L93.416,31.979L93.305,31.715L93.193,31.452L93.079,31.19L92.964,30.928L92.847,30.668L92.729,30.408L92.609,30.149L92.487,29.891L92.364,29.634L92.239,29.378L92.113,29.122L91.986,28.868L91.857,28.614L91.726,28.361L91.594,28.109L91.461,27.858L91.326,27.608L91.189,27.359L91.051,27.11L90.912,26.863L90.771,26.616L90.629,26.371L90.485,26.126L90.34,25.882L90.193,25.64L90.046,25.398L89.896,25.157L89.745,24.917L89.593,24.678L89.439,24.44L89.284,24.203L89.128,23.967L88.97,23.733L88.811,23.498L88.651,23.266L88.489,23.034L88.326,22.803L88.161,22.573L87.995,22.344L87.828,22.116L87.659,21.889L87.489,21.663L87.318,21.439L87.145,21.215L86.971,20.992L86.796,20.771L86.62,20.55L86.442,20.331L86.263,20.113L86.082,19.896L85.901,19.679L85.718,19.465L85.534,19.251L85.348,19.038L85.162,18.826L84.974,18.616L84.784,18.406L84.594,18.198L84.402,17.991L84.21,17.785L84.015,17.58L83.82,17.377L83.624,17.174L83.426,16.973L83.227,16.773L83.027,16.574L82.826,16.376L82.623,16.18L82.42,15.985L82.215,15.79L82.009,15.598L81.802,15.406L81.594,15.216L81.384,15.026L81.174,14.838L80.962,14.652L80.749,14.466L80.536,14.282L80.321,14.099L80.104,13.918L79.887,13.737L79.669,13.558L79.45,13.38L79.229,13.204L79.008,13.029L78.785,12.855L78.561,12.682L78.337,12.511L78.111,12.341L77.884,12.172L77.656,12.005L77.427,11.839L77.197,11.674L76.966,11.511L76.734,11.349L76.501,11.189L76.268,11.03L76.033,10.872L75.797,10.716L75.56,10.561L75.322,10.407L75.083,10.255L74.843,10.104L74.602,9.954L74.36,9.806L74.118,9.66L73.874,9.515L73.629,9.371L73.384,9.229L73.137,9.088L72.89,8.949L72.641,8.811L72.392,8.674L72.142,8.539L71.891,8.406L71.639,8.274L71.386,8.143L71.132,8.014L70.878,7.887L70.622,7.761L70.366,7.636L70.109,7.513L69.851,7.391L69.592,7.271L69.332,7.153L69.072,7.036L68.81,6.921L68.548,6.807L68.285,6.695L68.021,6.584L67.757,6.475L67.491,6.367L67.225,6.261L66.958,6.157L66.69,6.054L66.421,5.953L66.152,5.853L65.882,5.755L65.611,5.658L65.339,5.564L65.067,5.47L64.794,5.379L64.52,5.289L64.245,5.201L63.97,5.114L63.694,5.029L63.417,4.946L63.139,4.864L62.861,4.784L62.582,4.705L62.303,4.629L62.022,4.554L61.741,4.48L61.46,4.409L61.177,4.339L60.894,4.271L60.611,4.204L60.326,4.14L60.041,4.076L59.756,4.015L59.469,3.956L59.182,3.898L58.895,3.842L58.607,3.787L58.318,3.735L58.028,3.684L57.738,3.635L57.448,3.588L57.157,3.542L56.865,3.498L56.572,3.456L56.279,3.416L55.986,3.378L55.692,3.342L55.397,3.307L55.102,3.274L54.806,3.243L54.509,3.214L54.212,3.186L53.915,3.161L53.617,3.137L53.318,3.115L53.019,3.096L52.719,3.077L52.419,3.061L52.119,3.047L51.817,3.035L51.516,3.024L51.214,3.015L50.911,3.009L50.608,3.004L50.304,3.001L50,3L49.696,3.001Z" style="fill:white;"/>
    <g transform="matrix(-1.083,-1.3263e-16,7.55822e-17,-0.617175,-18.3428,83.0589)">
        <path d="M-63.105,18.409L-36.602,71.415L-63.532,71.415L-89.608,71.415L-63.105,18.409Z" style="fill:white;"/>
    </g>
</svg>
